<?xml version="1.0" encoding="utf-8"?>
<svg xmlns="http://www.w3.org/2000/svg"
	xmlns:xlink="http://www.w3.org/1999/xlink"
	width="40px" height="46px" viewBox="0 0 40 46">
<path fillRule="evenodd" d="M 32.5 30.5C 30.78 30.5 29.2 31.08 27.94 32.06 27.94 32.06 14.89 24.23 14.89 24.23 14.96 23.83 15 23.42 15 23 15 22.58 14.96 22.17 14.89 21.77 14.89 21.77 27.94 13.94 27.94 13.94 29.2 14.92 30.78 15.5 32.5 15.5 36.64 15.5 40 12.14 40 8 40 3.86 36.64 0.5 32.5 0.5 28.36 0.5 25 3.86 25 8 25 8.42 25.04 8.83 25.11 9.23 25.11 9.23 12.06 17.06 12.06 17.06 10.8 16.08 9.22 15.5 7.5 15.5 3.36 15.5-0 18.86-0 23-0 27.14 3.36 30.5 7.5 30.5 9.22 30.5 10.8 29.92 12.06 28.94 12.06 28.94 25.11 36.77 25.11 36.77 25.04 37.17 25 37.58 25 38 25 42.14 28.36 45.5 32.5 45.5 36.64 45.5 40 42.14 40 38 40 33.86 36.64 30.5 32.5 30.5Z" fill="rgb(255,255,255)"/></svg>