<?xml version="1.0" encoding="utf-8"?>
<svg xmlns="http://www.w3.org/2000/svg"
	xmlns:xlink="http://www.w3.org/1999/xlink"
	width="8px" height="14px" viewBox="0 0 8 14">
<path fillRule="evenodd" d="M 7.32 9.01C 6.75 9.37 6.13 9.62 5.48 9.77 5.48 9.77 7.25 11.54 7.25 11.54 7.61 11.9 7.61 12.48 7.25 12.84 6.89 13.21 6.3 13.21 5.94 12.84 5.94 12.84 4.21 11.11 4.21 11.11 4.21 11.11 2.47 12.84 2.47 12.84 2.29 13.02 2.05 13.12 1.82 13.12 1.58 13.12 1.34 13.02 1.16 12.84 0.8 12.48 0.8 11.9 1.16 11.54 1.16 11.54 2.93 9.77 2.93 9.77 2.28 9.62 1.66 9.37 1.09 9.01 0.66 8.74 0.53 8.17 0.8 7.73 1.08 7.3 1.65 7.17 2.08 7.44 3.37 8.26 5.04 8.26 6.33 7.44 6.77 7.17 7.34 7.3 7.61 7.73 7.88 8.17 7.75 8.74 7.32 9.01ZM 4.21 7.19C 2.46 7.19 1.05 5.78 1.05 4.04 1.05 2.29 2.46 0.88 4.21 0.88 5.95 0.88 7.36 2.29 7.36 4.04 7.36 5.78 5.95 7.19 4.21 7.19ZM 4.21 2.73C 3.49 2.73 2.9 3.31 2.9 4.04 2.9 4.76 3.49 5.34 4.21 5.34 4.93 5.34 5.51 4.76 5.51 4.04 5.51 3.31 4.93 2.73 4.21 2.73Z" fill="rgb(255,255,255)"/></svg>
